<svg id="Layer_1" data-name="Layer 1" xmlns="http://www.w3.org/2000/svg" viewBox="0 0 518.99 352.2"><defs><style>.cls-1{fill:#fff;}.cls-2{fill:#727272;}</style></defs><title>ball</title><ellipse class="cls-1" cx="259.49" cy="176.1" rx="253.61" ry="170.21"/><path class="cls-2" d="M694.71,259.21c-48.86-32.8-113.71-50.86-182.6-50.86S378.36,226.41,329.5,259.21c-49.58,33.27-76.89,77.75-76.89,125.24s27.31,92,76.89,125.25c48.86,32.8,113.71,50.86,182.61,50.86s133.74-18.06,182.6-50.86C744.3,476.43,771.6,432,771.6,384.45S744.3,292.48,694.71,259.21ZM264.38,384.45a111,111,0,0,1,1.14-15.71c7.79-21.61,31.58-41.74,68.92-57.87,47.39-20.46,110.48-31.73,177.67-31.73s130.27,11.27,177.66,31.73c37.34,16.13,61.13,36.26,68.92,57.87a108.89,108.89,0,0,1,0,31.43c-7.79,21.61-31.58,41.75-68.92,57.87-47.39,20.46-110.49,31.73-177.66,31.73S381.83,478.5,334.44,458c-37.34-16.12-61.13-36.26-68.92-57.87A110.92,110.92,0,0,1,264.38,384.45ZM512.11,220.13c114.13,0,210.47,51.47,239.07,121.26-13-14.24-32.6-27.23-58.08-38.24-48.41-20.91-112.69-32.42-181-32.42s-132.59,11.51-181,32.42c-25.48,11-45.06,24-58.08,38.24C301.63,271.6,398,220.13,512.11,220.13Zm0,328.66C398,548.79,301.63,497.31,273,427.52c13,14.25,32.6,27.24,58.08,38.24,48.41,20.91,112.69,32.42,181,32.42s132.58-11.51,181-32.42c25.48-11,45.06-24,58.08-38.23C722.58,497.31,626.24,548.79,512.11,548.79Z" transform="translate(-252.61 -208.35)"/></svg>