<?xml version="1.0" encoding="utf-8"?>
<!-- Generator: Adobe Illustrator 23.0.1, SVG Export Plug-In . SVG Version: 6.00 Build 0)  -->
<svg version="1.1" id="Capa_1" xmlns="http://www.w3.org/2000/svg" xmlns:xlink="http://www.w3.org/1999/xlink" x="0px" y="0px"
	 viewBox="0 0 28.5 28.5" style="enable-background:new 0 0 28.5 28.5;" xml:space="preserve">
<style type="text/css">
	.st0{fill:#FFFFFF;}
</style>
<g>
	<path class="st0" d="M9.2,11.6l1.3,1.1c0.2-0.3,0.5-0.5,0.7-0.8l-1.3-1.1l0.8-0.9L12,11c0.2-0.2,0.4-0.4,0.6-0.7l-1.3-1.1l0.8-0.9
		l1.4,1.2C13.7,9.3,14,9,14.3,8.7l-1.4-1.2l0.8-0.9l1.5,1.2c0.2-0.2,0.5-0.4,0.7-0.7L14.4,6l0.8-0.9l1.6,1.4
		c2.9-2.4,6.1-4.5,9.5-5.8C25.2,0.3,23.5,0,21.4,0C16.5,0,9.7,1.5,5.6,5.6c-6,6-6.4,17.4-4.8,20.9c0,0,3.3-6.4,8.9-12.9l-1.3-1.1
		L9.2,11.6z"/>
	<path class="st0" d="M27.5,1.7c0,0-4.1,1.6-9.4,5.9l0.8,0.7l-0.8,0.9l-0.9-0.8C17,8.6,16.7,8.8,16.5,9l1,0.9l-0.8,0.9l-1.1-1
		c-0.3,0.3-0.6,0.5-0.8,0.8l1.1,1l-0.8,0.9l-1.2-1c-0.2,0.2-0.4,0.4-0.6,0.7l1.2,1L13.6,14l-1.2-1c-0.2,0.3-0.5,0.5-0.7,0.8l1.2,1
		l-0.8,0.9l-1.2-1c-3,3.5-6,7.8-8.7,13.2c1.1,0.4,2.8,0.7,4.9,0.7c4.9,0,11.6-1.5,15.8-5.6C29.1,16.7,29.4,4.7,27.5,1.7z"/>
</g>
</svg>
